<svg xmlns="http://www.w3.org/2000/svg" width="43.431" height="60.197" viewBox="0 0 43.431 60.197"><defs><style>.a{fill:#ad743b;}.b{fill:#fcbc85;}.c{fill:#fdcc9b;}.d{fill:#5770be;}.e{fill:#cc8f47;}.f{fill:#3b2519;}.g{fill:#fff;}.h{fill:#f4ba8e;}.i{fill:#f7945e;}.j{fill:#c48c4e;}.k{fill:#d29955;}</style></defs><g transform="translate(-1583.189 -397.736)"><path class="a" d="M1027.952,355.279c.464.949-.282,2.087-1.2,2.613s-2,.7-2.906,1.25a4.018,4.018,0,0,0,1.576,7.419,3.156,3.156,0,0,0-2.471,3.55,4.573,4.573,0,0,0,3.03,3.442,8.573,8.573,0,0,0,4.747.136,7.724,7.724,0,0,0,9.039,1.131" transform="translate(565.204 61.947)"/><path class="a" d="M1106.886,355.279c-.464.949.282,2.087,1.2,2.613s2,.7,2.906,1.25a4.018,4.018,0,0,1-1.576,7.419,3.156,3.156,0,0,1,2.471,3.55,4.572,4.572,0,0,1-3.031,3.442,8.574,8.574,0,0,1-4.748.136,7.724,7.724,0,0,1-9.039,1.131" transform="translate(509.658 61.947)"/><path class="b" d="M1139.786,358.8c-.748,1.775-.322,4.551.951,5.087s2.911-1.37,3.658-3.146.322-3.649-.951-4.185S1140.533,357.024,1139.786,358.8Z" transform="translate(475.978 61.088)"/><path class="b" d="M1035.348,358.8c.747,1.775.322,4.551-.951,5.087s-2.911-1.37-3.658-3.146-.322-3.649.951-4.185S1034.6,357.024,1035.348,358.8Z" transform="translate(558.791 61.088)"/><path class="c" d="M1045.206,414.471a8.566,8.566,0,0,0-2.791-1.457L1033,410.078h0a1.8,1.8,0,0,1-1.17-1.52,68.379,68.379,0,0,1-.291-7.986.116.116,0,0,0-.119-.117h-8.309a.116.116,0,0,0-.119.117,71.058,71.058,0,0,1-.291,7.986,1.783,1.783,0,0,1-1.17,1.52h0l-9.443,2.945a8.22,8.22,0,0,0-2.436,1.2c-3.83,2.818-3.94,7.431-4.1,8.289a.118.118,0,0,0,.117.14h43.192a.118.118,0,0,0,.117-.14C1048.822,421.676,1048.766,417.3,1045.206,414.471Z" transform="translate(577.641 27.639)"/><path class="b" d="M1086.4,419.677c-.04-1.768-.161-3.448-.156-3.9a.117.117,0,0,0-.121-.117h-8.445a.117.117,0,0,0-.121.117c0,.448-.025,1.045-.067,2.818C1080.312,419.55,1083.573,420.628,1086.4,419.677Z" transform="translate(523.009 16.09)"/><path class="d" d="M1063.967,449.645c-.317,1.369-1.539,4.289-6.228,5.643a12.256,12.256,0,0,0-6.605,4.181,12.267,12.267,0,0,0-6.595-4.167c-4.7-1.359-5.918-4.292-6.23-5.656l-1.321.412V460h28.3v-9.946Z" transform="translate(553.765 -9.716)"/><path class="c" d="M1052.518,296.966c-8.219,0-16.061,4.3-13.062,18.551,2.664,12.664,12.76,13.867,12.76,13.867a16.608,16.608,0,0,0,13.363-13.867C1068.238,301.195,1060.737,296.966,1052.518,296.966Z" transform="translate(552.386 106.231)"/><path class="e" d="M1064.425,347a3.672,3.672,0,0,0-3.727-.776c-1.213.356-1.787,1.4-1.568,1.411.071.218.533-.416,1.647-.643a8.039,8.039,0,0,1,3.146.735C1064.428,347.945,1064.534,347.169,1064.425,347Z" transform="translate(536.985 68.96)"/><path class="e" d="M1110.6,347a3.673,3.673,0,0,1,3.728-.776c1.213.356,1.787,1.4,1.568,1.411-.071.218-.533-.416-1.647-.643a8.039,8.039,0,0,0-3.146.735C1110.6,347.945,1110.492,347.169,1110.6,347Z" transform="translate(497.891 68.96)"/><ellipse class="f" cx="1.524" cy="1.692" rx="1.524" ry="1.692" transform="translate(1610.104 418.63)"/><ellipse class="f" cx="1.524" cy="1.692" rx="1.524" ry="1.692" transform="translate(1596.751 418.63)"/><ellipse class="g" cx="0.495" cy="0.549" rx="0.495" ry="0.549" transform="translate(1597.019 418.977)"/><ellipse class="g" cx="0.495" cy="0.549" rx="0.495" ry="0.549" transform="translate(1610.391 418.977)"/><circle class="h" cx="2.055" cy="2.055" r="2.055" transform="translate(1594.235 423.818)"/><circle class="h" cx="2.055" cy="2.055" r="2.055" transform="translate(1611.557 423.818)"/><path class="b" d="M1090.774,388.9a3.932,3.932,0,0,1-4.621,0c-.068.341-.049,1.664,2.292,1.677h.037C1090.823,390.562,1090.842,389.239,1090.774,388.9Z" transform="translate(516.44 36.416)"/><path class="i" d="M1087.527,404.408a9.051,9.051,0,0,1-7.682,0c.091.374.679,1.326,3.837,1.337h.008C1086.848,405.734,1087.436,404.782,1087.527,404.408Z" transform="translate(521.218 24.638)"/><path class="b" d="M1094.143,411.767a1.422,1.422,0,0,1-1.545,0s-.035.555.755.592l.005,0h.029s0,0,.005,0C1094.181,412.321,1094.143,411.767,1094.143,411.767Z" transform="translate(511.534 19.049)"/><path class="j" d="M1102.707,287.372c1.544.222,5.458,1.861,5.611,4.976.167,3.407,5.927,2.768,5.492,8.89-.07.983,1.146.513,1.461-.426,1.958-5.835-.832-11.574-4.208-14.6-3.164-2.835-7.639-1.868-8.485-.508a.906.906,0,0,0-.111.589C1102.519,286.708,1102.546,287.349,1102.707,287.372Z" transform="translate(504.046 115.79)"/><path class="k" d="M1054.76,277.625c.019-1.682-2.064-3.083-3.835-3.266-5.4-.558-13,1.448-16.192,5.592-3.119,4.048-3.945,12.647-2.053,15.44,2.02,2.981,3.245.4,3.643-.953,1.974-6.689,5.614-6.163,8.906-8.174,4.394-2.683,1.546-6.855,7.516-4.346C1054.24,282.546,1054.742,279.174,1054.76,277.625Z" transform="translate(557.801 123.469)"/><path class="c" d="M1582.328,613.226v4.63l-7.43-4.63Z" transform="translate(11.162 -165.007)"/><path class="d" d="M1628.274,567.548c-.318,1.367-1.539,4.28-6.231,5.632a12.267,12.267,0,0,0-6.609,4.172,12.277,12.277,0,0,0-6.6-4.159c-4.707-1.356-5.921-4.283-6.234-5.645l-1.322.411,0,14.311,14.164,3.242,14.17-3.216-.01-14.336Z" transform="translate(-10.526 -127.579)"/><path class="c" d="M1559,624.5l7.528,4.435V624.5Z" transform="translate(24.225 -174.246)"/><path class="c" d="M1566.433,624.5,1559,628.937V624.5Z" transform="translate(60.083 -174.214)"/></g></svg>